<svg width="20" height="21" viewBox="0 0 20 21" fill="none" xmlns="http://www.w3.org/2000/svg">
<path d="M9.99999 2.02298C5.40499 2.02298 1.66666 5.76131 1.66666 10.3563C1.66666 14.9513 5.40499 18.6896 9.99999 18.6896C14.595 18.6896 18.3333 14.9513 18.3333 10.3563C18.3333 5.76131 14.595 2.02298 9.99999 2.02298ZM9.99999 17.023C6.32416 17.023 3.33332 14.0321 3.33332 10.3563C3.33332 6.68048 6.32416 3.68965 9.99999 3.68965C13.6758 3.68965 16.6667 6.68048 16.6667 10.3563C16.6667 14.0321 13.6758 17.023 9.99999 17.023Z" fill="#6366F1"/>
<path d="M8.33249 11.6788L6.41666 9.76632L5.23999 10.9463L8.33416 14.0338L13.9225 8.44548L12.7442 7.26715L8.33249 11.6788Z" fill="#6366F1"/>
</svg>
