<svg width="88" height="16" viewBox="0 0 88 16" fill="none" xmlns="http://www.w3.org/2000/svg">
<path d="M14.6313 6.11937C14.5453 5.86737 14.318 5.68937 14.0527 5.66871L10.252 5.36671L8.60734 1.72604C8.50001 1.48671 8.26201 1.33337 8.00001 1.33337C7.73801 1.33337 7.50001 1.48671 7.39267 1.72537L5.74801 5.36671L1.94734 5.66871C1.68667 5.68937 1.46201 5.86071 1.37334 6.10671C1.28467 6.35271 1.34734 6.62804 1.53467 6.81071L4.34334 9.54871L3.35001 13.85C3.28867 14.116 3.39601 14.3927 3.62067 14.548C3.73534 14.6267 3.86734 14.6667 4.00001 14.6667C4.12867 14.6667 4.25801 14.6294 4.37001 14.5547L8.00001 12.1347L11.63 14.5547C11.862 14.7094 12.1667 14.7034 12.3933 14.5387C12.6187 14.374 12.718 14.0854 12.6413 13.8174L11.422 9.55071L14.446 6.82937C14.644 6.65071 14.7167 6.37204 14.6313 6.11937Z" fill="#FFBA08"/>
<path d="M32.6313 6.11937C32.5453 5.86737 32.318 5.68937 32.0527 5.66871L28.252 5.36671L26.6073 1.72604C26.5 1.48671 26.262 1.33337 26 1.33337C25.738 1.33337 25.5 1.48671 25.3927 1.72537L23.748 5.36671L19.9473 5.66871C19.6867 5.68937 19.462 5.86071 19.3733 6.10671C19.2847 6.35271 19.3473 6.62804 19.5347 6.81071L22.3433 9.54871L21.35 13.85C21.2887 14.116 21.396 14.3927 21.6207 14.548C21.7353 14.6267 21.8673 14.6667 22 14.6667C22.1287 14.6667 22.258 14.6294 22.37 14.5547L26 12.1347L29.63 14.5547C29.862 14.7094 30.1667 14.7034 30.3933 14.5387C30.6187 14.374 30.718 14.0854 30.6413 13.8174L29.422 9.55071L32.446 6.82937C32.644 6.65071 32.7167 6.37204 32.6313 6.11937Z" fill="#FFBA08"/>
<path d="M50.6313 6.11937C50.5453 5.86737 50.318 5.68937 50.0527 5.66871L46.252 5.36671L44.6073 1.72604C44.5 1.48671 44.262 1.33337 44 1.33337C43.738 1.33337 43.5 1.48671 43.3927 1.72537L41.748 5.36671L37.9473 5.66871C37.6867 5.68937 37.462 5.86071 37.3733 6.10671C37.2847 6.35271 37.3473 6.62804 37.5347 6.81071L40.3433 9.54871L39.35 13.85C39.2887 14.116 39.396 14.3927 39.6207 14.548C39.7353 14.6267 39.8673 14.6667 40 14.6667C40.1287 14.6667 40.258 14.6294 40.37 14.5547L44 12.1347L47.63 14.5547C47.862 14.7094 48.1667 14.7034 48.3933 14.5387C48.6187 14.374 48.718 14.0854 48.6413 13.8174L47.422 9.55071L50.446 6.82937C50.644 6.65071 50.7167 6.37204 50.6313 6.11937Z" fill="#FFBA08"/>
<path d="M68.6313 6.11937C68.5453 5.86737 68.318 5.68937 68.0527 5.66871L64.252 5.36671L62.6073 1.72604C62.5 1.48671 62.262 1.33337 62 1.33337C61.738 1.33337 61.5 1.48671 61.3927 1.72537L59.748 5.36671L55.9473 5.66871C55.6867 5.68937 55.462 5.86071 55.3733 6.10671C55.2847 6.35271 55.3473 6.62804 55.5347 6.81071L58.3433 9.54871L57.35 13.85C57.2887 14.116 57.396 14.3927 57.6207 14.548C57.7353 14.6267 57.8673 14.6667 58 14.6667C58.1287 14.6667 58.258 14.6294 58.37 14.5547L62 12.1347L65.63 14.5547C65.862 14.7094 66.1667 14.7034 66.3933 14.5387C66.6187 14.374 66.718 14.0854 66.6413 13.8174L65.422 9.55071L68.446 6.82937C68.644 6.65071 68.7167 6.37204 68.6313 6.11937Z" fill="#FFBA08"/>
<path d="M76.344 9.54871L75.3507 13.85C75.2893 14.116 75.396 14.3927 75.6213 14.548C75.7353 14.6267 75.8673 14.6667 76 14.6667C76.1287 14.6667 76.258 14.6294 76.37 14.5547L80 12.1347L83.63 14.5547C83.862 14.7094 84.1667 14.7034 84.3933 14.5387C84.6187 14.374 84.718 14.0854 84.6413 13.8174L83.422 9.55071L86.446 6.82937C86.644 6.65071 86.7167 6.37204 86.6313 6.12004C86.5453 5.86804 86.318 5.69071 86.0527 5.66937L82.252 5.36671L80.6073 1.72604C80.5 1.48671 80.262 1.33337 80 1.33337C79.738 1.33337 79.5 1.48671 79.3927 1.72604L77.748 5.36671L73.9473 5.66871C73.686 5.68937 73.4613 5.86071 73.3733 6.10671C73.284 6.35271 73.348 6.62804 73.5347 6.81071L76.344 9.54871ZM78.246 6.66471C78.488 6.64537 78.7013 6.49604 78.8007 6.27404L80 3.62004L81.1993 6.27404C81.2987 6.49604 81.512 6.64537 81.754 6.66471L84.402 6.87471L82.2213 8.83737C82.032 9.00804 81.9567 9.27071 82.026 9.51604L82.8613 12.4394L80.3707 10.7787C80.1467 10.6287 79.8553 10.6287 79.6313 10.7787L77.0287 12.514L77.7287 9.48337C77.7807 9.25671 77.7113 9.01871 77.5447 8.85671L75.5193 6.88204L78.246 6.66471Z" fill="#B4B7C9"/>
</svg>
